<svg width="61" height="77" viewBox="0 0 61 77" fill="none" xmlns="http://www.w3.org/2000/svg">
<path d="M5.31738 5.37891C14.4198 5.89853 21.3249 9.82027 26.6924 15.5732C33.161 22.5066 37.4936 32.2406 40.1162 42.2041C42.4791 51.1813 43.3428 59.9387 43.2852 66.21C38.6577 62.2693 32.8652 59.047 27.167 56.4717C19.8319 53.1566 11.9672 50.6133 5.31738 48.8936V5.37891ZM41.6436 7.97754C42.0793 8.10513 42.5062 8.2357 42.9229 8.37402C47.6923 9.9573 50.8468 12.1349 52.8105 15.0205C54.7763 17.9091 56.0164 22.1954 55.6035 28.9092C55.5038 30.5297 55.3078 32.2711 55.0098 34.1416C54.075 30.6987 52.9467 27.3292 51.5488 24.0479C49.129 18.3676 45.9328 13.0123 41.6436 7.97754Z" stroke="white" stroke-width="10.6341"/>
</svg>
